<svg xmlns="http://www.w3.org/2000/svg" viewBox="0 0 256 256" style="width: 100%; height: 100%; display: inline-block; fill: var(--token-58c64560-eb67-488b-9c3a-a5660edeb2fa, rgb(14, 14, 14)); color: var(--token-58c64560-eb67-488b-9c3a-a5660edeb2fa, rgb(14, 14, 14)); flex-shrink: 0;" focusable="false" color="var(--token-58c64560-eb67-488b-9c3a-a5660edeb2fa, rgb(14, 14, 14))">
    <g color="var(--token-58c64560-eb67-488b-9c3a-a5660edeb2fa, rgb(14, 14, 14))">
        <path d="M224,48H160a40,40,0,0,0-32,16A40,40,0,0,0,96,48H32A16,16,0,0,0,16,64V192a16,16,0,0,0,16,16H96a24,24,0,0,1,24,24,8,8,0,0,0,16,0,24,24,0,0,1,24-24h64a16,16,0,0,0,16-16V64A16,16,0,0,0,224,48ZM96,192H32V64H96a24,24,0,0,1,24,24V200A39.81,39.81,0,0,0,96,192Zm128,0H160a39.81,39.81,0,0,0-24,8V88a24,24,0,0,1,24-24h64Z"></path>
    </g>
</svg>