<svg xmlns="http://www.w3.org/2000/svg" viewBox="0 0 256 256" style="width: 100%; height: 100%; display: inline-block; fill: var(--token-58c64560-eb67-488b-9c3a-a5660edeb2fa, rgb(14, 14, 14)); color: var(--token-58c64560-eb67-488b-9c3a-a5660edeb2fa, rgb(14, 14, 14)); flex-shrink: 0;" focusable="false" color="var(--token-58c64560-eb67-488b-9c3a-a5660edeb2fa, rgb(14, 14, 14))">
    <g color="var(--token-58c64560-eb67-488b-9c3a-a5660edeb2fa, rgb(14, 14, 14))">
        <path d="M224,48H32a8,8,0,0,0-8,8V192a16,16,0,0,0,16,16H216a16,16,0,0,0,16-16V56A8,8,0,0,0,224,48ZM40,112H80v32H40Zm56,0H216v32H96ZM216,64V96H40V64ZM40,160H80v32H40Zm176,32H96V160H216v32Z"></path>
    </g>
</svg>