<svg xmlns="http://www.w3.org/2000/svg" viewBox="0 0 256 256" style="width: 100%; height: 100%; display: inline-block; fill: var(--token-58c64560-eb67-488b-9c3a-a5660edeb2fa, rgb(14, 14, 14)); color: var(--token-58c64560-eb67-488b-9c3a-a5660edeb2fa, rgb(14, 14, 14)); flex-shrink: 0;" focusable="false" color="var(--token-58c64560-eb67-488b-9c3a-a5660edeb2fa, rgb(14, 14, 14))">
    <g color="var(--token-58c64560-eb67-488b-9c3a-a5660edeb2fa, rgb(14, 14, 14))">
        <path d="M224,200h-8V40a8,8,0,0,0-8-8H152a8,8,0,0,0-8,8V80H96a8,8,0,0,0-8,8v40H48a8,8,0,0,0-8,8v64H32a8,8,0,0,0,0,16H224a8,8,0,0,0,0-16ZM160,48h40V200H160ZM104,96h40V200H104ZM56,144H88v56H56Z"></path>
    </g>
</svg>