<svg xmlns="http://www.w3.org/2000/svg" viewBox="0 0 256 256" style="width: 100%; height: 100%; display: inline-block; fill: var(--token-33722da1-56ef-4815-82ed-442105eb06b1, rgb(0, 0, 0)); color: var(--token-33722da1-56ef-4815-82ed-442105eb06b1, rgb(0, 0, 0)); flex-shrink: 0;" focusable="false" color="var(--token-33722da1-56ef-4815-82ed-442105eb06b1, rgb(0, 0, 0))">
    <g color="var(--token-33722da1-56ef-4815-82ed-442105eb06b1, rgb(0, 0, 0))">
        <path d="M201.54,54.46A104,104,0,0,0,54.46,201.54,104,104,0,0,0,201.54,54.46ZM190.23,190.23a88,88,0,1,1,0-124.46A88.11,88.11,0,0,1,190.23,190.23Zm-24.57-27.89a8,8,0,0,1-11.32,11.32L128,147.31l-26.34,26.35a8,8,0,0,1-11.32-11.32l32-32a8,8,0,0,1,11.32,0Zm0-56a8,8,0,0,1-11.32,11.32L128,91.31l-26.34,26.35a8,8,0,0,1-11.32-11.32l32-32a8,8,0,0,1,11.32,0Z"></path>
    </g>
</svg>